<?xml version="1.0" encoding="UTF-8" standalone="no"?>
<svg class="homr-heart" width="58px" height="52px" viewBox="0 0 58 52" version="1.1" xmlns="http://www.w3.org/2000/svg" xmlns:xlink="http://www.w3.org/1999/xlink" xmlns:sketch="http://www.bohemiancoding.com/sketch/ns">
    <!-- Generator: Sketch 3.3 (11970) - http://www.bohemiancoding.com/sketch -->
  
    <g id="Welcome" stroke="none" stroke-width="1" fill="none" fill-rule="evenodd" sketch:type="MSPage">
        <g id="Desktop-HD-Copy" sketch:type="MSArtboardGroup" transform="translate(-677.000000, -516.000000)" fill="#EE2722">
            <path d="M692.643871,567.790913 C695.028914,567.949879 697.185723,567.48358 699.342532,566.254248 C699.627824,566.095283 700.540759,565.544203 700.780404,565.332249 C701.065697,565.067307 703.05133,563.509446 703.439328,563.000757 C703.633326,562.75701 705.527666,560.467909 705.527666,560.467909 C705.527666,560.467909 707.330713,562.386091 707.65024,562.714619 C708.198001,563.255102 708.711527,563.604825 709.110936,563.901561 C710.274928,564.781169 711.461744,565.565398 712.796911,566.328432 C713.73267,566.868914 715.341717,567.367006 716.197594,567.48358 C716.437239,567.515373 717.076294,567.600155 717.361586,567.642545 C720.613917,568.108844 724.82483,566.79473 727.209872,565.417031 C729.845972,563.901561 731.66043,561.665448 733.064068,558.867658 C733.372183,558.242394 734.079708,556.578557 734.216648,556.165247 C734.958408,553.950329 735.129583,551.152539 734.912761,548.386542 C734.581822,544.08388 732.733129,539.664643 730.758907,536.994025 C730.359498,536.46414 729.446563,534.916877 728.339629,533.581568 C724.653654,529.172929 719.198868,523.683326 713.709846,520.207283 C712.169268,519.232296 706.269426,516 706.269426,516 C706.269426,516 700.118527,519.433652 699.137121,520.03772 C692.917752,523.895279 686.047916,529.363688 682.213589,535.542141 C680.878422,537.693472 679.337844,539.865999 678.459144,542.494226 C678.048323,543.702363 677.683149,544.740936 677.397857,546.086843 C676.724568,549.255553 676.929978,552.98594 677.831501,555.942695 C678.23091,557.256809 678.824318,558.666302 679.394903,559.789657 C681.460418,563.806182 685.294745,566.445006 690.338711,567.472982 C691.137529,567.631948 691.902112,567.748522 692.643871,567.790913" id="path2960" sketch:type="MSShapeGroup" transform="translate(706.000000, 541.910474) rotate(-180.000000) translate(-706.000000, -541.910474) "></path>
        </g>
    </g>
</svg>